<svg width="32" height="32" viewBox="0 0 32 32" fill="none" xmlns="http://www.w3.org/2000/svg">
    <rect x="5" y="5" width="22" height="22" rx="6" fill="#EB5757"/>
    <path d="M22.7099 11.2099C22.617 11.1161 22.5064 11.0417 22.3845 10.991C22.2627 10.9402 22.132 10.9141 21.9999 10.9141C21.8679 10.9141 21.7372 10.9402 21.6154 10.991C21.4935 11.0417 21.3829 11.1161 21.29 11.2099L13.84 18.6699L10.7099 15.5299C10.6134 15.4366 10.4995 15.3633 10.3746 15.3141C10.2498 15.2649 10.1165 15.2408 9.98227 15.2431C9.84809 15.2454 9.71568 15.2741 9.5926 15.3276C9.46953 15.3811 9.35819 15.4583 9.26495 15.5549C9.17171 15.6514 9.0984 15.7653 9.04919 15.8902C8.99999 16.015 8.97586 16.1484 8.97818 16.2825C8.9805 16.4167 9.00923 16.5491 9.06272 16.6722C9.11622 16.7953 9.19343 16.9066 9.28995 16.9999L13.13 20.8399C13.2229 20.9336 13.3335 21.008 13.4554 21.0588C13.5772 21.1095 13.7079 21.1357 13.84 21.1357C13.972 21.1357 14.1027 21.1095 14.2245 21.0588C14.3464 21.008 14.457 20.9336 14.55 20.8399L22.7099 12.6799C22.8115 12.5862 22.8925 12.4726 22.9479 12.3461C23.0033 12.2196 23.0319 12.083 23.0319 11.9449C23.0319 11.8068 23.0033 11.6702 22.9479 11.5437C22.8925 11.4172 22.8115 11.3035 22.7099 11.2099Z"
          fill="white"/>
    <rect x="0.5" y="0.5" width="31" height="31" rx="6.5" stroke="black"/>
</svg>
